:version 1.10
:name ASF
:units
  mass 1
  length 1
  angle deg
:documentation
  ASF file generated by Kaydara
:root
  axis xyz
  order  tx ty tz rx ry rz
  position 0 0 0
  orientation 0 0 0
:bonedata
  begin
    id 1
    name RightUpLegDummy
    direction -0.718183 -0.695806 0.00816078
    length 4.904
    axis 0 0 0 xyz
  end
  begin
    id 2
    name RightUpLeg
    direction 3.53373e-006 -0.995788 0.0916898
    length 17.4976
    axis -3.49089 -0.000906625 0.000286804 xyz
    dof rx ry rz
  end
  begin
    id 3
    name RightLeg
    direction 0.00371092 -0.995096 -0.0988419
    length 16.5821
    axis 3.68512 0.0193738 -0.131023 xyz
    dof rx ry rz
  end
  begin
    id 4
    name RightFoot
    direction 0.00079151 -0.46099 0.887405
    length 3.77069
    axis 4.81691e-005 -0.120479 -0.188788 xyz
    dof rx ry rz
  end
  begin
    id 5
    name RightToes
    direction 0 0 0
    length 0
    axis 0 0 0 xyz
    dof rx ry rz
  end
  begin
    id 6
    name SpineDummy
    direction 8.3039e-015 1 4.57515e-016
    length 4.6813
    axis 0 0 0 xyz
  end
  begin
    id 7
    name Spine
    direction -3.15643e-008 0.999988 0.00495137
    length 10.1015
    axis -0.001389 0.000121418 2.40972e-006 xyz
    dof rx ry rz
  end
  begin
    id 8
    name Spine1
    direction 0 0 0
    length 0
    axis -0.001389 0.000121451 1.30017e-006 xyz
    dof rx ry rz
  end
  begin
    id 9
    name HEadDummy
    direction -1.99912e-008 0.999999 0.00127422
    length 3.43865
    axis -0.001389 0.000121451 1.30017e-006 xyz
  end
  begin
    id 10
    name HEad
    direction 0 0 0
    length 0
    axis 0 0 0 xyz
    dof rx ry rz
  end
  begin
    id 11
    name LeftShoulder1Dummy
    direction 0.998891 -0.0402509 -0.0244456
    length 3.5433
    axis -0.001389 0.000121451 1.30017e-006 xyz
  end
  begin
    id 12
    name LeftShoulder1
    direction 0.99951 -0.000327763 0.0313091
    length 4.05031
    axis -0.001389 0.000121451 1.30017e-006 xyz
    dof rx ry rz
  end
  begin
    id 13
    name LeftArm
    direction 0.998561 -0.00100056 -0.0536182
    length 10.3537
    axis -23.1894 0.134784 0.967509 xyz
    dof rx ry rz
  end
  begin
    id 14
    name LeftForeArm
    direction 0.998903 0.00866432 0.046012
    length 8.70632
    axis -9.91835 -0.06569 -0.177794 xyz
    dof rx ry rz
  end
  begin
    id 15
    name LeftHand
    direction 0 0 0
    length 0
    axis 0 0 0 xyz
    dof rx ry rz
  end
  begin
    id 16
    name RightShoulderDummy
    direction -0.998891 -0.0402509 -0.0244414
    length 3.5433
    axis -0.001389 0.000121451 1.30017e-006 xyz
  end
  begin
    id 17
    name RightShoulder
    direction -0.99951 -0.000327807 0.0313133
    length 4.05031
    axis 0.215806 0.000203643 -0.0068026 xyz
    dof rx ry rz
  end
  begin
    id 18
    name RightArm
    direction -0.998573 -0.000999564 -0.053403
    length 10.3947
    axis -23.2009 -0.134239 -0.964101 xyz
    dof rx ry rz
  end
  begin
    id 19
    name RightForeArm
    direction -0.998898 0.00868028 0.0461306
    length 8.68355
    axis -9.92322 0.0658061 0.178868 xyz
    dof rx ry rz
  end
  begin
    id 20
    name RightHand
    direction 0 0 0
    length 0
    axis 0 0 0 xyz
    dof rx ry rz
  end
  begin
    id 21
    name LeftUpLegDummy
    direction 0.718183 -0.695806 0.00816078
    length 4.904
    axis 0 0 0 xyz
  end
  begin
    id 22
    name LeftUpLeg
    direction -6.81752e-006 -0.995793 0.0916337
    length 17.4976
    axis -3.48766 0.00143442 -0.000524262 xyz
    dof rx ry rz
  end
  begin
    id 23
    name LeftLeg
    direction -0.00601358 -0.995091 -0.0987824
    length 16.5821
    axis 3.68178 -0.00654042 -0.000285133 xyz
    dof rx ry rz
  end
  begin
    id 24
    name LeftFoot
    direction -0.00417578 -0.460984 0.887399
    length 3.77069
    axis 1.87233e-006 4.66016e-005 -8.6538e-006 xyz
    dof rx ry rz
  end
  begin
    id 25
    name LeftToes
    direction 0 0 0
    length 0
    axis 0 0 0 xyz
    dof rx ry rz
  end
:hierarchy
  begin
    root RightUpLegDummy SpineDummy LeftUpLegDummy
    RightUpLegDummy RightUpLeg
    RightUpLeg RightLeg
    RightLeg RightFoot
    RightFoot RightToes
    SpineDummy Spine
    Spine Spine1
    Spine1 HEadDummy LeftShoulder1Dummy RightShoulderDummy
    HEadDummy HEad
    LeftShoulder1Dummy LeftShoulder1
    LeftShoulder1 LeftArm
    LeftArm LeftForeArm
    LeftForeArm LeftHand
    RightShoulderDummy RightShoulder
    RightShoulder RightArm
    RightArm RightForeArm
    RightForeArm RightHand
    LeftUpLegDummy LeftUpLeg
    LeftUpLeg LeftLeg
    LeftLeg LeftFoot
    LeftFoot LeftToes
  end

:SAMPLES-PER-SECOND 30
:FULLY-SPECIFIED
:DEGREES
111
root  25.5669 40.1258 -4.37915 -12.1083 -83.4121 10.8328
RightUpLeg  -4.48074 -11.2697 -4.35102
RightLeg  14.5203 -13.2595 2.93702
RightFoot  -7.58995 0.030266 -2.49138
RightToes  0.000481921 0.542163 -0.142578
Spine  -2.47273 -0.228816 7.70198
Spine1  16.8865 -0.572077 2.67053
HEad  30.5307 -12.1402 4.2143
LeftShoulder1  9.76882 -13.5457 -50.0218
LeftArm  -4.94463 24.5962 -25.8137
LeftForeArm  34.0759 -15.3535 -4.66787
LeftHand  -0.25398 0.0180481 5.50724
RightShoulder  4.85104 7.93385 36.4193
RightArm  -4.32612 4.02381 30.4102
RightForeArm  9.29443 8.32492 7.92
RightHand  -1.70681 5.65165 -18.1854
LeftUpLeg  -9.05138 7.94495 4.08347
LeftLeg  40.8599 5.63558 5.5765
LeftFoot  -5.05103 0.421764 -7.12085
LeftToes  1.06246e-005 4.65868e-005 -8.65513e-006
112
root  25.0776 40.1704 -4.46745 -16.093 -83.368 14.9299
RightUpLeg  -3.58536 -11.4287 -4.80509
RightLeg  14.1986 -12.977 3.09189
RightFoot  -8.19021 0.011287 -2.42389
RightToes  0.000481921 0.542163 -0.142578
Spine  -2.25519 0.215413 8.17624
Spine1  16.9666 0.327532 1.12866
HEad  31.1813 -11.9834 3.21664
LeftShoulder1  9.63166 -13.4731 -49.5323
LeftArm  -3.97488 26.2975 -25.721
LeftForeArm  33.7503 -17.0061 -4.25544
LeftHand  -0.25398 0.0180481 5.50724
RightShoulder  4.74155 7.8141 35.9132
RightArm  -4.96545 6.44822 30.3419
RightForeArm  6.92122 9.43136 7.792
RightHand  -1.73826 5.67281 -18.4741
LeftUpLeg  -11.0656 8.08377 3.25909
LeftLeg  37.8356 5.52833 4.95146
LeftFoot  -5.63222 0.394476 -7.22847
LeftToes  1.06246e-005 4.65868e-005 -8.65513e-006
113
root  24.6037 40.2 -4.54005 -19.185 -83.2051 18.1497
RightUpLeg  -2.70077 -11.5024 -5.18962
RightLeg  13.8373 -12.8774 3.20107
RightFoot  -8.76031 -0.0058677 -2.37043
RightToes  0.000481921 0.542163 -0.142578
Spine  -2.03089 0.577055 8.3176
Spine1  17.0436 0.997049 0.0294471
HEad  31.8839 -11.6428 2.18787
LeftShoulder1  9.49938 -13.3517 -49.2038
LeftArm  -3.96855 27.6029 -25.8245
LeftForeArm  33.1134 -18.5426 -3.82951
LeftHand  -0.25398 0.0180481 5.50724
RightShoulder  4.62473 7.65403 35.477
RightArm  -4.74879 8.66654 30.1048
RightForeArm  4.09482 11.0507 7.65873
RightHand  -1.78135 5.80034 -18.7105
LeftUpLeg  -12.8916 8.46937 2.51278
LeftLeg  33.9215 5.26628 4.14791
LeftFoot  -5.80355 0.390086 -7.3405
LeftToes  1.06246e-005 4.65868e-005 -8.65513e-006
114
root  24.1408 40.2244 -4.59239 -21.346 -82.9892 20.4307
RightUpLeg  -1.8495 -11.4933 -5.47419
RightLeg  13.4748 -12.941 3.22566
RightFoot  -9.22035 -0.0185713 -2.36617
RightToes  0.000481921 0.542163 -0.142578
Spine  -1.74592 0.856602 8.31952
Spine1  17.0264 1.51774 -0.889063
HEad  32.753 -11.0941 1.10485
LeftShoulder1  9.38913 -13.2168 -49.0242
LeftArm  -4.87596 28.564 -26.029
LeftForeArm  32.3907 -19.8876 -3.50587
LeftHand  -0.25398 0.0180481 5.50724
RightShoulder  4.54957 7.55272 35.1825
RightArm  -3.68902 10.542 29.7126
RightForeArm  1.30078 12.9837 7.4033
RightHand  -1.82648 5.98994 -18.8637
LeftUpLeg  -14.4135 9.10289 1.81608
LeftLeg  29.1935 4.64309 3.14087
LeftFoot  -5.49732 0.413587 -7.45061
LeftToes  1.06246e-005 4.65868e-005 -8.65513e-006
115
root  23.6808 40.2576 -4.61814 -22.9738 -82.8944 22.1719
RightUpLeg  -1.00716 -11.381 -5.63735
RightLeg  13.0442 -13.0506 3.17562
RightFoot  -9.53943 -0.0271304 -2.37768
RightToes  0.000481921 0.542163 -0.142578
Spine  -1.42582 1.0892 8.42093
Spine1  16.9312 2.0367 -1.98711
HEad  33.7716 -10.2832 -0.051468
LeftShoulder1  9.28554 -13.0942 -48.8404
LeftArm  -6.092 29.1773 -26.3137
LeftForeArm  32.0352 -20.9366 -3.337
LeftHand  -0.25398 0.0180481 5.50724
RightShoulder  4.5 7.49098 34.966
RightArm  -2.17048 11.9603 29.4607
RightForeArm  -1.18366 15.0449 6.96888
RightHand  -1.85776 6.10994 -18.9845
LeftUpLeg  -15.5188 10.2299 1.13613
LeftLeg  23.568 3.40486 1.97909
LeftFoot  -4.38904 0.486333 -7.56566
LeftToes  1.06246e-005 4.65868e-005 -8.65513e-006
